<svg width="215" height="209" viewBox="0 0 215 209" fill="none" xmlns="http://www.w3.org/2000/svg">
<path d="M21.15 26.2H27.6C27.6 30.7333 26.4667 34.2167 24.2 36.65C21.9333 39.0833 18.7333 40.3 14.6 40.3C5.5 40.3 0.95 34.95 0.95 24.25V21.25C0.95 12.8167 3.28333 7.53333 7.95 5.4C9.78333 4.53333 12 4.1 14.6 4.1C18.4 4.1 21.4833 5.15 23.85 7.25C26.25 9.31666 27.45 12.3167 27.45 16.25H20.95C20.5833 14.2833 19.9333 12.8 19 11.8C18.0667 10.8 16.6 10.3 14.6 10.3C12.2667 10.3 10.5333 11.0333 9.4 12.5C8.6 13.5333 8.13333 15.3 8 17.8C7.93333 18.6 7.9 19.6833 7.9 21.05V24.15C7.9 27.9833 8.43333 30.6 9.5 32C10.6 33.4 12.3 34.1 14.6 34.1C16.9333 34.1 18.5333 33.4667 19.4 32.2C20.3 30.9 20.8833 28.9 21.15 26.2ZM48.1711 11.55L46.3711 17.95C45.8711 17.75 45.3044 17.65 44.6711 17.65C43.0044 17.65 40.9544 18.3667 38.5211 19.8V40H32.0211V11.45H36.8711L38.3711 13.95L45.2711 11.1C45.6044 11.0667 46.0544 11.05 46.6211 11.05C47.1878 11.05 47.7044 11.2167 48.1711 11.55ZM73.9035 27.25H57.2535C57.2535 29.85 57.6535 31.75 58.4535 32.95C59.2868 34.15 60.9368 34.75 63.4035 34.75C65.0035 34.75 66.1868 34.25 66.9535 33.25C67.7202 32.2167 68.1035 31.2333 68.1035 30.3H73.9535C73.9535 33.8667 72.9869 36.4833 71.0535 38.15C69.1535 39.8167 66.6202 40.65 63.4535 40.65C60.3202 40.65 57.8868 40.2 56.1535 39.3C52.5868 37.4667 50.8035 32.6 50.8035 24.7C50.8035 20 51.8202 16.5667 53.8535 14.4C55.8868 12.2 58.9868 11.1 63.1535 11.1C70.3868 11.1 74.0035 15.1167 74.0035 23.15C74.0035 24.0167 73.9702 25.3833 73.9035 27.25ZM57.4035 22.8H68.1035C68.1035 20.6 67.6868 19 66.8535 18C66.0202 17 64.7368 16.5 63.0035 16.5C61.3035 16.5 59.9368 17.0167 58.9035 18.05C57.9035 19.05 57.4035 20.6333 57.4035 22.8ZM99.5461 40H95.1961L93.1961 36.55L86.2461 40.3C82.3794 40.3 79.7794 38.9 78.4461 36.1C77.7794 34.7333 77.3128 33.2667 77.0461 31.7C76.8128 30.1 76.6961 28.45 76.6961 26.75C76.6961 25.0167 76.7128 23.75 76.7461 22.95C76.7794 22.1167 76.8628 21.1667 76.9961 20.1C77.1294 19 77.3128 18.0833 77.5461 17.35C77.8128 16.6167 78.1794 15.8667 78.6461 15.1C79.1128 14.3 79.6794 13.6667 80.3461 13.2C81.8461 12.1667 83.7961 11.65 86.1961 11.65H93.0461L99.5461 11.25V40ZM93.0461 30.9V17.5H88.0961C86.2628 17.5 84.9794 18.2 84.2461 19.6C83.5461 21 83.1961 23.1 83.1961 25.9C83.1961 28.6667 83.5294 30.6167 84.1961 31.75C84.8961 32.8833 86.1961 33.45 88.0961 33.45L93.0461 30.9ZM118.805 40H114.755C112.288 40 110.405 39.2667 109.105 37.8C107.838 36.3333 107.205 34.5833 107.205 32.55V17.55H104.455V12.6H107.205V7H113.705V12.6H118.305V17.55H113.705V32.15C113.705 33.7167 114.455 34.5 115.955 34.5H118.805V40ZM127.483 0.549998C129.05 0.549998 130.067 0.799998 130.533 1.3C131 1.76666 131.233 2.78333 131.233 4.35C131.233 5.88333 130.983 6.9 130.483 7.4C130.017 7.86667 129 8.1 127.433 8.1C125.9 8.1 124.883 7.85 124.383 7.35C123.917 6.85 123.683 5.83333 123.683 4.3C123.683 2.76666 123.917 1.76666 124.383 1.3C124.883 0.799998 125.917 0.549998 127.483 0.549998ZM130.683 40H124.183V12.5H130.683V40ZM158.753 11.45L149.203 40H144.103L134.503 11.45H141.353L146.653 30.05L151.903 11.45H158.753ZM165.911 0.549998C167.478 0.549998 168.494 0.799998 168.961 1.3C169.428 1.76666 169.661 2.78333 169.661 4.35C169.661 5.88333 169.411 6.9 168.911 7.4C168.444 7.86667 167.428 8.1 165.861 8.1C164.328 8.1 163.311 7.85 162.811 7.35C162.344 6.85 162.111 5.83333 162.111 4.3C162.111 2.76666 162.344 1.76666 162.811 1.3C163.311 0.799998 164.344 0.549998 165.911 0.549998ZM169.111 40H162.611V12.5H169.111V40ZM188.58 40H184.53C182.064 40 180.18 39.2667 178.88 37.8C177.614 36.3333 176.98 34.5833 176.98 32.55V17.55H174.23V12.6H176.98V7H183.48V12.6H188.08V17.55H183.48V32.15C183.48 33.7167 184.23 34.5 185.73 34.5H188.58V40ZM214.809 11.45L203.959 43.2C203.459 44.6333 202.809 45.75 202.009 46.55C200.675 47.8833 198.809 48.55 196.409 48.55H193.359V42.7H195.359C196.292 42.7 196.975 42.5333 197.409 42.2C197.875 41.9 198.275 41.2833 198.609 40.35L199.109 38.95L190.509 11.45H197.359L202.459 31.3L207.959 11.45H214.809ZM26.3 66.6H16.75V96H9.8V66.6H0.3V60.4H26.3V66.6ZM53.2645 96H46.7645V78.1C46.7645 75.0333 45.5645 73.5 43.1645 73.5L36.9645 75.95V96H30.4645V58.4H36.9645V70.85L45.2145 67.15C48.1478 67.15 50.2145 67.9833 51.4145 69.65C52.6478 71.3167 53.2645 73.65 53.2645 76.65V96ZM79.3313 96H74.9813L72.9813 92.55L66.0313 96.3C62.1646 96.3 59.5646 94.9 58.2313 92.1C57.5646 90.7333 57.0979 89.2667 56.8313 87.7C56.5979 86.1 56.4813 84.45 56.4813 82.75C56.4813 81.0167 56.4979 79.75 56.5313 78.95C56.5646 78.1167 56.6479 77.1667 56.7813 76.1C56.9146 75 57.0979 74.0833 57.3313 73.35C57.5979 72.6167 57.9646 71.8667 58.4313 71.1C58.8979 70.3 59.4646 69.6667 60.1313 69.2C61.6313 68.1667 63.5813 67.65 65.9813 67.65H72.8313L79.3313 67.25V96ZM72.8313 86.9V73.5H67.8813C66.0479 73.5 64.7646 74.2 64.0313 75.6C63.3313 77 62.9813 79.1 62.9813 81.9C62.9813 84.6667 63.3146 86.6167 63.9813 87.75C64.6813 88.8833 65.9813 89.45 67.8813 89.45L72.8313 86.9ZM98.5902 96H94.5402C92.0736 96 90.1902 95.2667 88.8902 93.8C87.6236 92.3333 86.9902 90.5833 86.9902 88.55V73.55H84.2402V68.6H86.9902V63H93.4902V68.6H98.0902V73.55H93.4902V88.15C93.4902 89.7167 94.2402 90.5 95.7402 90.5H98.5902V96ZM30.9 116.4V148.4C30.9 149.5 30.5667 150.45 29.9 151.25C29.2333 152.017 28.45 152.4 27.55 152.4C25.25 152.4 23.3667 151.067 21.9 148.4L9.6 129.15V152H2.65V116.4H9.35L23.95 139.7V116.4H30.9ZM59.0109 139.25H42.3609C42.3609 141.85 42.7609 143.75 43.5609 144.95C44.3943 146.15 46.0443 146.75 48.5109 146.75C50.1109 146.75 51.2943 146.25 52.0609 145.25C52.8276 144.217 53.2109 143.233 53.2109 142.3H59.0609C59.0609 145.867 58.0943 148.483 56.1609 150.15C54.2609 151.817 51.7276 152.65 48.5609 152.65C45.4276 152.65 42.9943 152.2 41.2609 151.3C37.6943 149.467 35.9109 144.6 35.9109 136.7C35.9109 132 36.9276 128.567 38.9609 126.4C40.9943 124.2 44.0943 123.1 48.2609 123.1C55.4943 123.1 59.1109 127.117 59.1109 135.15C59.1109 136.017 59.0776 137.383 59.0109 139.25ZM42.5109 134.8H53.2109C53.2109 132.6 52.7943 131 51.9609 130C51.1276 129 49.8443 128.5 48.1109 128.5C46.4109 128.5 45.0443 129.017 44.0109 130.05C43.0109 131.05 42.5109 132.633 42.5109 134.8ZM85.8035 123.45L76.2535 152H71.1535L61.5535 123.45H68.4035L73.7035 142.05L78.9535 123.45H85.8035ZM111.062 139.25H94.4117C94.4117 141.85 94.8117 143.75 95.6117 144.95C96.4451 146.15 98.0951 146.75 100.562 146.75C102.162 146.75 103.345 146.25 104.112 145.25C104.878 144.217 105.262 143.233 105.262 142.3H111.112C111.112 145.867 110.145 148.483 108.212 150.15C106.312 151.817 103.778 152.65 100.612 152.65C97.4784 152.65 95.0451 152.2 93.3117 151.3C89.7451 149.467 87.9617 144.6 87.9617 136.7C87.9617 132 88.9784 128.567 91.0117 126.4C93.0451 124.2 96.1451 123.1 100.312 123.1C107.545 123.1 111.162 127.117 111.162 135.15C111.162 136.017 111.128 137.383 111.062 139.25ZM94.5617 134.8H105.262C105.262 132.6 104.845 131 104.012 130C103.178 129 101.895 128.5 100.162 128.5C98.4617 128.5 97.0951 129.017 96.0617 130.05C95.0617 131.05 94.5617 132.633 94.5617 134.8ZM132.204 123.55L130.404 129.95C129.904 129.75 129.338 129.65 128.704 129.65C127.038 129.65 124.988 130.367 122.554 131.8V152H116.054V123.45H120.904L122.404 125.95L129.304 123.1C129.638 123.067 130.088 123.05 130.654 123.05C131.221 123.05 131.738 123.217 132.204 123.55ZM26.6 208H14C10 208 7.18333 207.317 5.55 205.95C3.95 204.55 3.15 202.1 3.15 198.6V172.4H26.6V178.6H10.1V186.95H21.65L21.15 193.15H10.1V198.1C10.1 199.5 10.4167 200.467 11.05 201C11.6833 201.533 12.8333 201.8 14.5 201.8H26.6V208ZM55.0734 208H48.5734V189.75C48.5734 188.117 48.2401 187 47.5734 186.4C46.9068 185.8 45.9734 185.5 44.7734 185.5L38.9234 187.95V208H32.4234V179.45H37.2734L38.7734 182.85L46.7734 179.15C49.0068 179.15 50.9401 179.983 52.5734 181.65C54.2401 183.283 55.0734 185.683 55.0734 188.85V208ZM82.3355 208H77.9855L75.9855 204.55L69.0355 208.3C65.1689 208.3 62.5689 206.9 61.2355 204.1C60.5689 202.733 60.1022 201.267 59.8355 199.7C59.6022 198.1 59.4855 196.45 59.4855 194.75C59.4855 193.017 59.5022 191.75 59.5355 190.95C59.5689 190.117 59.6522 189.167 59.7855 188.1C59.9189 187 60.1022 186.083 60.3355 185.35C60.6022 184.617 60.9689 183.867 61.4355 183.1C61.9022 182.3 62.4689 181.667 63.1355 181.2C64.6355 180.167 66.5855 179.65 68.9855 179.65H75.8355V170.4H82.3355V208ZM75.8355 198.9V185.5H70.8855C69.0522 185.5 67.7689 186.2 67.0355 187.6C66.3355 189 65.9855 191.1 65.9855 193.9C65.9855 196.667 66.3189 198.617 66.9855 199.75C67.6855 200.883 68.9855 201.45 70.8855 201.45L75.8355 198.9ZM109.213 200.1V200.85C109.013 203.35 107.946 205.233 106.013 206.5C104.113 207.767 101.73 208.4 98.8629 208.4C94.6296 208.4 91.6629 207.633 89.9629 206.1C88.3962 204.7 87.6129 202.633 87.6129 199.9V199.3H93.5129C93.5129 200.833 93.9129 201.883 94.7129 202.45C95.5129 203.017 96.8962 203.3 98.8629 203.3C101.53 203.3 102.863 202.333 102.863 200.4C102.863 198.8 102.396 197.733 101.463 197.2C101.03 196.933 100.48 196.733 99.8129 196.6L94.7629 195.75C90.3629 195.05 88.1629 192.3 88.1629 187.5C88.1629 184.833 89.1296 182.767 91.0629 181.3C93.0296 179.8 95.5129 179.05 98.5129 179.05C105.346 179.05 108.763 182 108.763 187.9V188.55H103.113C103.046 186.983 102.63 185.917 101.863 185.35C101.096 184.783 100.013 184.5 98.6129 184.5C97.2462 184.5 96.2129 184.783 95.5129 185.35C94.8129 185.883 94.4629 186.483 94.4629 187.15C94.4629 189.05 95.2296 190.133 96.7629 190.4L102.813 191.5C107.08 192.3 109.213 195.167 109.213 200.1ZM121.512 201.3C122.045 201.8 122.312 202.883 122.312 204.55C122.312 206.217 122.045 207.317 121.512 207.85C121.012 208.383 119.928 208.65 118.262 208.65C116.595 208.65 115.495 208.383 114.962 207.85C114.428 207.317 114.162 206.217 114.162 204.55C114.162 202.883 114.428 201.8 114.962 201.3C115.495 200.767 116.595 200.5 118.262 200.5C119.928 200.5 121.012 200.767 121.512 201.3ZM136.258 201.3C136.791 201.8 137.058 202.883 137.058 204.55C137.058 206.217 136.791 207.317 136.258 207.85C135.758 208.383 134.674 208.65 133.008 208.65C131.341 208.65 130.241 208.383 129.708 207.85C129.174 207.317 128.908 206.217 128.908 204.55C128.908 202.883 129.174 201.8 129.708 201.3C130.241 200.767 131.341 200.5 133.008 200.5C134.674 200.5 135.758 200.767 136.258 201.3ZM151.004 201.3C151.537 201.8 151.804 202.883 151.804 204.55C151.804 206.217 151.537 207.317 151.004 207.85C150.504 208.383 149.421 208.65 147.754 208.65C146.087 208.65 144.987 208.383 144.454 207.85C143.921 207.317 143.654 206.217 143.654 204.55C143.654 202.883 143.921 201.8 144.454 201.3C144.987 200.767 146.087 200.5 147.754 200.5C149.421 200.5 150.504 200.767 151.004 201.3Z" fill="white"/>
</svg>
